<svg xmlns="http://www.w3.org/2000/svg" xmlns:svg="http://www.w3.org/2000/svg" id="svg8" width="544.219" height="332.533" version="1.1" viewBox="0 0 143.991 87.983"><metadata id="metadata5"/><g id="layer1" transform="translate(-21.829599,-43.906539)"><g id="g1513" transform="translate(-102.98504,-1.4715)"><path id="path1509" d="m 130.21603,73.194523 16.79999,-3.76e-4 3.2,3.200376 1e-5,6.4 h -20 z" style="fill:#fff;fill-opacity:1;stroke:#000;stroke-width:.25;stroke-linecap:round;stroke-linejoin:miter;stroke-miterlimit:2;stroke-dasharray:none;stroke-opacity:1"/><path id="path1511" d="m 147.01602,73.194147 v 3.200376 h 3.2" style="fill:none;fill-opacity:1;stroke:#000;stroke-width:.25;stroke-linecap:round;stroke-linejoin:miter;stroke-miterlimit:2;stroke-dasharray:none;stroke-opacity:1"/></g><text xml:space="preserve" style="font-style:normal;font-weight:400;font-size:3.66888881px;line-height:1.25;font-family:sans-serif;letter-spacing:0;word-spacing:0;fill:#000;fill-opacity:1;stroke:none;stroke-width:.26458332" id="text828" x="29.019" y="77.484"><tspan id="tspan826" x="29.019" y="77.484" style="font-size:3.66888881px;stroke-width:.26458332">img_files</tspan></text><g id="g1507" transform="translate(-63.114498,-1.4715)"><path style="fill:#fff;fill-opacity:1;stroke:#000;stroke-width:.25;stroke-linecap:round;stroke-linejoin:miter;stroke-miterlimit:2;stroke-dasharray:none;stroke-opacity:1" id="path1503" d="m 130.21603,73.194523 16.79999,-3.76e-4 3.2,3.200376 1e-5,6.4 h -20 z"/><path style="fill:none;fill-opacity:1;stroke:#000;stroke-width:.25;stroke-linecap:round;stroke-linejoin:miter;stroke-miterlimit:2;stroke-dasharray:none;stroke-opacity:1" id="path1505" d="m 147.01602,73.194147 v 3.200376 h 3.2"/></g><text xml:space="preserve" style="font-style:normal;font-weight:400;font-size:3.66888881px;line-height:1.25;font-family:sans-serif;letter-spacing:0;word-spacing:0;fill:#000;fill-opacity:1;stroke:none;stroke-width:.26458332" id="text836" x="67.423" y="77.484"><tspan id="tspan834" x="67.423" y="77.484" style="font-size:3.66888881px;stroke-width:.26458332">mask_files</tspan></text><g id="g1538" transform="translate(-64.006939,42.373733)"><path id="path1534" d="m 130.21603,73.194523 16.79999,-3.76e-4 3.2,3.200376 1e-5,6.4 h -20 z" style="fill:#fff;fill-opacity:1;stroke:#000;stroke-width:.25;stroke-linecap:round;stroke-linejoin:miter;stroke-miterlimit:2;stroke-dasharray:none;stroke-opacity:1"/><path id="path1536" d="m 147.01602,73.194147 v 3.200376 h 3.2" style="fill:none;fill-opacity:1;stroke:#000;stroke-width:.25;stroke-linecap:round;stroke-linejoin:miter;stroke-miterlimit:2;stroke-dasharray:none;stroke-opacity:1"/></g><text id="text832" x="70.243" y="121.736" style="font-style:normal;font-weight:400;font-size:3.66888881px;line-height:1.25;font-family:sans-serif;letter-spacing:0;word-spacing:0;fill:#000;fill-opacity:1;stroke:none;stroke-width:.26458332" xml:space="preserve"><tspan style="font-size:3.66888881px;stroke-width:.26458332" id="tspan830" x="70.243" y="121.736">masks</tspan></text><rect style="fill:#ffffd5;fill-opacity:1;stroke:#000;stroke-width:.5;stroke-linecap:round;stroke-linejoin:round;stroke-miterlimit:4;stroke-dasharray:none;stroke-opacity:1" id="rect1294" width="33.829" height="51.323" x="126.742" y="49.584" rx="0" ry="0"/><g id="g1338" transform="translate(-0.1565434,-1.6036172)"><rect style="fill:#fff;fill-opacity:1;stroke:#000;stroke-width:.25;stroke-linecap:round;stroke-linejoin:round;stroke-miterlimit:4;stroke-dasharray:none;stroke-opacity:1" id="rect1278" width="25.098" height="11.654" x="130.373" y="60.371"/><g id="g1284" style="fill:#76b900;fill-opacity:1;stroke:green;stroke-width:1.25" transform="matrix(0.8,0,0,0.8,108.33884,28.957459)"><path id="path1280" d="m 188.84766,149.50781 -0.69727,2.84375 a 7.0947836,7.0947836 0 0 0 -2.0957,0.56055 l -2.02539,-2.11328 -2.1543,1.65429 1.51953,2.50586 a 7.0947836,7.0947836 0 0 0 -1.08398,1.87696 l -2.92969,-0.0625 -0.35352,2.69336 2.84375,0.69726 a 7.0947836,7.0947836 0 0 0 0.5625,2.09571 l -2.11328,2.02539 1.65235,2.15429 2.50586,-1.51953 a 7.0947836,7.0947836 0 0 0 1.87695,1.08399 l -0.0625,2.92773 2.69336,0.35547 0.69726,-2.8457 a 7.0947836,7.0947836 0 0 0 2.09571,-0.5586 l 2.02539,2.11133 2.15429,-1.65234 -1.51953,-2.50586 a 7.0947836,7.0947836 0 0 0 1.08399,-1.87696 l 2.92968,0.0606 0.35352,-2.69141 -2.84375,-0.69726 a 7.0947836,7.0947836 0 0 0 -0.56055,-2.0957 l 2.11133,-2.02735 -1.65234,-2.15234 -2.50586,1.51758 a 7.0947836,7.0947836 0 0 0 -1.87695,-1.08399 l 0.0625,-2.92773 z m -0.0762,6.25 a 3.6421471,3.6421471 0 0 1 0.6211,0.0273 3.6421471,3.6421471 0 0 1 3.13476,4.08593 3.6421471,3.6421471 0 0 1 -4.08398,3.13672 3.6421471,3.6421471 0 0 1 -3.13672,-4.08593 3.6421471,3.6421471 0 0 1 3.46484,-3.16407 z" transform="scale(0.26458333)" style="fill:#76b900;fill-opacity:1;stroke:green;stroke-width:.47244096;stroke-linecap:round;stroke-linejoin:round;stroke-miterlimit:4;stroke-dasharray:none;stroke-opacity:1"/><path id="path1282" d="m 209.01172,149.65625 -0.90039,3.67773 a 8.7708204,8.7708204 0 0 0 -1.89844,0.35352 l -2.16211,-3.11133 -2.38672,1.29688 1.4336,3.50586 a 8.7708204,8.7708204 0 0 0 -1.33399,1.39843 l -3.57226,-1.24414 -1.16797,2.45118 3.21289,1.99218 a 8.7708204,8.7708204 0 0 0 -0.1836,0.95313 8.7708204,8.7708204 0 0 0 -0.0625,0.96484 l -3.625,1.09375 0.49415,2.66992 3.77929,-0.27929 a 8.7708204,8.7708204 0 0 0 0.91992,1.69726 l -2.28906,3.01563 1.96875,1.86914 2.89063,-2.44336 a 8.7708204,8.7708204 0 0 0 1.74414,0.83789 l -0.0781,3.77734 2.69141,0.35547 0.90234,-3.67773 a 8.7708204,8.7708204 0 0 0 1.89844,-0.35352 l 2.16211,3.10938 2.38476,-1.29688 -1.43164,-3.50391 a 8.7708204,8.7708204 0 0 0 1.33204,-1.40039 l 3.57226,1.24415 1.16992,-2.45118 -3.21484,-1.99023 a 8.7708204,8.7708204 0 0 0 0.18359,-0.95313 8.7708204,8.7708204 0 0 0 0.0625,-0.96484 l 3.62696,-1.0957 -0.4961,-2.66992 -3.77929,0.27929 a 8.7708204,8.7708204 0 0 0 -0.91993,-1.69726 l 2.29102,-3.01563 -1.9707,-1.86914 -2.89063,2.44336 a 8.7708204,8.7708204 0 0 0 -1.74414,-0.83789 l 0.0801,-3.77734 z m -0.41992,8.47461 a 3.9438341,3.9438341 0 0 1 0.67187,0.0312 3.9438341,3.9438341 0 0 1 3.39649,4.42383 3.9438341,3.9438341 0 0 1 -4.42383,3.39648 3.9438341,3.9438341 0 0 1 -3.39649,-4.42578 3.9438341,3.9438341 0 0 1 3.75196,-3.42578 z" transform="scale(0.26458333)" style="fill:#76b900;fill-opacity:1;stroke:green;stroke-width:.47244096;stroke-linecap:round;stroke-linejoin:round;stroke-miterlimit:4;stroke-dasharray:none;stroke-opacity:1"/></g><text xml:space="preserve" style="font-style:normal;font-weight:400;font-size:3.66888881px;line-height:1.25;font-family:sans-serif;text-align:center;letter-spacing:0;word-spacing:0;text-anchor:middle;fill:#000;fill-opacity:1;stroke:none;stroke-width:.26458332" id="text1288" x="142.585" y="67.566"><tspan id="tspan1286" x="142.585" y="67.566" style="font-weight:700;font-size:3.66888881px;text-align:center;text-anchor:middle;stroke-width:.26458332">Operator</tspan></text></g><g id="g1526"><g id="g1519" transform="translate(-38.909755,-15.463939)"><path id="path1515" d="m 130.08837,87.186962 16.8,-3.76e-4 3.2,3.200376 v 6.4 h -20 z" style="fill:#fff;fill-opacity:1;stroke:#ccc;stroke-width:.25;stroke-linecap:round;stroke-linejoin:miter;stroke-miterlimit:2;stroke-dasharray:none;stroke-opacity:1"/><path id="path1517" d="m 146.88837,87.186586 v 3.200376 h 3.2" style="fill:none;fill-opacity:1;stroke:#ccc;stroke-width:.25;stroke-linecap:round;stroke-linejoin:miter;stroke-miterlimit:2;stroke-dasharray:none;stroke-opacity:1"/></g><text id="text840" x="100.104" y="78.254" style="font-style:normal;font-weight:400;font-size:3.66888881px;line-height:1.25;font-family:sans-serif;letter-spacing:0;word-spacing:0;fill:#b3b3b3;fill-opacity:1;stroke:none;stroke-width:.26458332" xml:space="preserve"><tspan style="font-size:3.66888881px;fill:#b3b3b3;stroke:none;stroke-width:.26458332" id="tspan838" x="100.104" y="78.254">_</tspan></text></g><g id="g1057" transform="matrix(0.8,0,0,0.8,5.670732,17.592074)" style="stroke-width:1.25"><rect id="rect871" width="31.372" height="14.567" x="27.214" y="39.299" style="fill:#fff;fill-opacity:1;stroke:#000;stroke-width:.3125;stroke-linecap:round;stroke-linejoin:round;stroke-miterlimit:4;stroke-dasharray:none;stroke-opacity:1"/><g transform="translate(-0.32787709,0.03262386)" style="fill:#76b900;fill-opacity:1;stroke:green;stroke-width:1.25" id="g946"><path style="fill:#76b900;fill-opacity:1;stroke:green;stroke-width:.47244096;stroke-linecap:round;stroke-linejoin:round;stroke-miterlimit:4;stroke-dasharray:none;stroke-opacity:1" id="path873" d="m 188.84766,149.50781 -0.69727,2.84375 a 7.0947836,7.0947836 0 0 0 -2.0957,0.56055 l -2.02539,-2.11328 -2.1543,1.65429 1.51953,2.50586 a 7.0947836,7.0947836 0 0 0 -1.08398,1.87696 l -2.92969,-0.0625 -0.35352,2.69336 2.84375,0.69726 a 7.0947836,7.0947836 0 0 0 0.5625,2.09571 l -2.11328,2.02539 1.65235,2.15429 2.50586,-1.51953 a 7.0947836,7.0947836 0 0 0 1.87695,1.08399 l -0.0625,2.92773 2.69336,0.35547 0.69726,-2.8457 a 7.0947836,7.0947836 0 0 0 2.09571,-0.5586 l 2.02539,2.11133 2.15429,-1.65234 -1.51953,-2.50586 a 7.0947836,7.0947836 0 0 0 1.08399,-1.87696 l 2.92968,0.0606 0.35352,-2.69141 -2.84375,-0.69726 a 7.0947836,7.0947836 0 0 0 -0.56055,-2.0957 l 2.11133,-2.02735 -1.65234,-2.15234 -2.50586,1.51758 a 7.0947836,7.0947836 0 0 0 -1.87695,-1.08399 l 0.0625,-2.92773 z m -0.0762,6.25 a 3.6421471,3.6421471 0 0 1 0.6211,0.0273 3.6421471,3.6421471 0 0 1 3.13476,4.08593 3.6421471,3.6421471 0 0 1 -4.08398,3.13672 3.6421471,3.6421471 0 0 1 -3.13672,-4.08593 3.6421471,3.6421471 0 0 1 3.46484,-3.16407 z" transform="scale(0.26458333)"/><path style="fill:#76b900;fill-opacity:1;stroke:green;stroke-width:.47244096;stroke-linecap:round;stroke-linejoin:round;stroke-miterlimit:4;stroke-dasharray:none;stroke-opacity:1" id="circle898" d="m 209.01172,149.65625 -0.90039,3.67773 a 8.7708204,8.7708204 0 0 0 -1.89844,0.35352 l -2.16211,-3.11133 -2.38672,1.29688 1.4336,3.50586 a 8.7708204,8.7708204 0 0 0 -1.33399,1.39843 l -3.57226,-1.24414 -1.16797,2.45118 3.21289,1.99218 a 8.7708204,8.7708204 0 0 0 -0.1836,0.95313 8.7708204,8.7708204 0 0 0 -0.0625,0.96484 l -3.625,1.09375 0.49415,2.66992 3.77929,-0.27929 a 8.7708204,8.7708204 0 0 0 0.91992,1.69726 l -2.28906,3.01563 1.96875,1.86914 2.89063,-2.44336 a 8.7708204,8.7708204 0 0 0 1.74414,0.83789 l -0.0781,3.77734 2.69141,0.35547 0.90234,-3.67773 a 8.7708204,8.7708204 0 0 0 1.89844,-0.35352 l 2.16211,3.10938 2.38476,-1.29688 -1.43164,-3.50391 a 8.7708204,8.7708204 0 0 0 1.33204,-1.40039 l 3.57226,1.24415 1.16992,-2.45118 -3.21484,-1.99023 a 8.7708204,8.7708204 0 0 0 0.18359,-0.95313 8.7708204,8.7708204 0 0 0 0.0625,-0.96484 l 3.62696,-1.0957 -0.4961,-2.66992 -3.77929,0.27929 a 8.7708204,8.7708204 0 0 0 -0.91993,-1.69726 l 2.29102,-3.01563 -1.9707,-1.86914 -2.89063,2.44336 a 8.7708204,8.7708204 0 0 0 -1.74414,-0.83789 l 0.0801,-3.77734 z m -0.41992,8.47461 a 3.9438341,3.9438341 0 0 1 0.67187,0.0312 3.9438341,3.9438341 0 0 1 3.39649,4.42383 3.9438341,3.9438341 0 0 1 -4.42383,3.39648 3.9438341,3.9438341 0 0 1 -3.39649,-4.42578 3.9438341,3.9438341 0 0 1 3.75196,-3.42578 z" transform="scale(0.26458333)"/></g><text id="text950" x="42.479" y="48.293" style="font-style:normal;font-weight:400;font-size:4.58611107px;line-height:1.25;font-family:sans-serif;text-align:center;letter-spacing:0;word-spacing:0;text-anchor:middle;fill:#000;fill-opacity:1;stroke:none;stroke-width:.33072916" xml:space="preserve"><tspan style="font-weight:700;font-size:4.58611107px;text-align:center;text-anchor:middle;stroke-width:.33072916" id="tspan948" x="42.479" y="48.293">FileReader</tspan></text></g><g id="g1073" transform="matrix(0.8,0,0,0.8,-13.228076,-7.1666391)" style="stroke-width:1.25"><rect id="rect997" width="43.666" height="14.567" x="50.228" y="127.606" style="fill:#fff;fill-opacity:1;stroke:#000;stroke-width:.3125;stroke-linecap:round;stroke-linejoin:round;stroke-miterlimit:4;stroke-dasharray:none;stroke-opacity:1"/><g transform="translate(34.980587,88.338901)" style="fill:#76b900;fill-opacity:1;stroke:green;stroke-width:1.25" id="g1003"><path style="fill:#76b900;fill-opacity:1;stroke:green;stroke-width:.47244096;stroke-linecap:round;stroke-linejoin:round;stroke-miterlimit:4;stroke-dasharray:none;stroke-opacity:1" id="path999" d="m 188.84766,149.50781 -0.69727,2.84375 a 7.0947836,7.0947836 0 0 0 -2.0957,0.56055 l -2.02539,-2.11328 -2.1543,1.65429 1.51953,2.50586 a 7.0947836,7.0947836 0 0 0 -1.08398,1.87696 l -2.92969,-0.0625 -0.35352,2.69336 2.84375,0.69726 a 7.0947836,7.0947836 0 0 0 0.5625,2.09571 l -2.11328,2.02539 1.65235,2.15429 2.50586,-1.51953 a 7.0947836,7.0947836 0 0 0 1.87695,1.08399 l -0.0625,2.92773 2.69336,0.35547 0.69726,-2.8457 a 7.0947836,7.0947836 0 0 0 2.09571,-0.5586 l 2.02539,2.11133 2.15429,-1.65234 -1.51953,-2.50586 a 7.0947836,7.0947836 0 0 0 1.08399,-1.87696 l 2.92968,0.0606 0.35352,-2.69141 -2.84375,-0.69726 a 7.0947836,7.0947836 0 0 0 -0.56055,-2.0957 l 2.11133,-2.02735 -1.65234,-2.15234 -2.50586,1.51758 a 7.0947836,7.0947836 0 0 0 -1.87695,-1.08399 l 0.0625,-2.92773 z m -0.0762,6.25 a 3.6421471,3.6421471 0 0 1 0.6211,0.0273 3.6421471,3.6421471 0 0 1 3.13476,4.08593 3.6421471,3.6421471 0 0 1 -4.08398,3.13672 3.6421471,3.6421471 0 0 1 -3.13672,-4.08593 3.6421471,3.6421471 0 0 1 3.46484,-3.16407 z" transform="scale(0.26458333)"/><path style="fill:#76b900;fill-opacity:1;stroke:green;stroke-width:.47244096;stroke-linecap:round;stroke-linejoin:round;stroke-miterlimit:4;stroke-dasharray:none;stroke-opacity:1" id="path1001" d="m 209.01172,149.65625 -0.90039,3.67773 a 8.7708204,8.7708204 0 0 0 -1.89844,0.35352 l -2.16211,-3.11133 -2.38672,1.29688 1.4336,3.50586 a 8.7708204,8.7708204 0 0 0 -1.33399,1.39843 l -3.57226,-1.24414 -1.16797,2.45118 3.21289,1.99218 a 8.7708204,8.7708204 0 0 0 -0.1836,0.95313 8.7708204,8.7708204 0 0 0 -0.0625,0.96484 l -3.625,1.09375 0.49415,2.66992 3.77929,-0.27929 a 8.7708204,8.7708204 0 0 0 0.91992,1.69726 l -2.28906,3.01563 1.96875,1.86914 2.89063,-2.44336 a 8.7708204,8.7708204 0 0 0 1.74414,0.83789 l -0.0781,3.77734 2.69141,0.35547 0.90234,-3.67773 a 8.7708204,8.7708204 0 0 0 1.89844,-0.35352 l 2.16211,3.10938 2.38476,-1.29688 -1.43164,-3.50391 a 8.7708204,8.7708204 0 0 0 1.33204,-1.40039 l 3.57226,1.24415 1.16992,-2.45118 -3.21484,-1.99023 a 8.7708204,8.7708204 0 0 0 0.18359,-0.95313 8.7708204,8.7708204 0 0 0 0.0625,-0.96484 l 3.62696,-1.0957 -0.4961,-2.66992 -3.77929,0.27929 a 8.7708204,8.7708204 0 0 0 -0.91993,-1.69726 l 2.29102,-3.01563 -1.9707,-1.86914 -2.89063,2.44336 a 8.7708204,8.7708204 0 0 0 -1.74414,-0.83789 l 0.0801,-3.77734 z m -0.41992,8.47461 a 3.9438341,3.9438341 0 0 1 0.67187,0.0312 3.9438341,3.9438341 0 0 1 3.39649,4.42383 3.9438341,3.9438341 0 0 1 -4.42383,3.39648 3.9438341,3.9438341 0 0 1 -3.39649,-4.42578 3.9438341,3.9438341 0 0 1 3.75196,-3.42578 z" transform="scale(0.26458333)"/></g><text id="text1007" x="71.86" y="136.137" style="font-style:normal;font-weight:400;font-size:4.58611107px;line-height:1.25;font-family:sans-serif;text-align:center;letter-spacing:0;word-spacing:0;text-anchor:middle;fill:#000;fill-opacity:1;stroke:none;stroke-width:.33072916" xml:space="preserve"><tspan style="font-weight:700;font-size:4.58611107px;text-align:center;text-anchor:middle;stroke-width:.33072916" id="tspan1005" x="71.86" y="136.137">ImageDecoder</tspan></text></g><g id="g1065" transform="matrix(0.8,0,0,0.8,9.8662687,17.592074)" style="stroke-width:1.25"><rect style="fill:#fff;fill-opacity:1;stroke:#000;stroke-width:.3125;stroke-linecap:round;stroke-linejoin:round;stroke-miterlimit:4;stroke-dasharray:none;stroke-opacity:1" id="rect1023" width="31.372" height="14.567" x="72.784" y="39.299"/><g id="g1029" style="fill:#76b900;fill-opacity:1;stroke:green;stroke-width:1.25" transform="translate(45.241577,0.03262386)"><path id="path1025" d="m 188.84766,149.50781 -0.69727,2.84375 a 7.0947836,7.0947836 0 0 0 -2.0957,0.56055 l -2.02539,-2.11328 -2.1543,1.65429 1.51953,2.50586 a 7.0947836,7.0947836 0 0 0 -1.08398,1.87696 l -2.92969,-0.0625 -0.35352,2.69336 2.84375,0.69726 a 7.0947836,7.0947836 0 0 0 0.5625,2.09571 l -2.11328,2.02539 1.65235,2.15429 2.50586,-1.51953 a 7.0947836,7.0947836 0 0 0 1.87695,1.08399 l -0.0625,2.92773 2.69336,0.35547 0.69726,-2.8457 a 7.0947836,7.0947836 0 0 0 2.09571,-0.5586 l 2.02539,2.11133 2.15429,-1.65234 -1.51953,-2.50586 a 7.0947836,7.0947836 0 0 0 1.08399,-1.87696 l 2.92968,0.0606 0.35352,-2.69141 -2.84375,-0.69726 a 7.0947836,7.0947836 0 0 0 -0.56055,-2.0957 l 2.11133,-2.02735 -1.65234,-2.15234 -2.50586,1.51758 a 7.0947836,7.0947836 0 0 0 -1.87695,-1.08399 l 0.0625,-2.92773 z m -0.0762,6.25 a 3.6421471,3.6421471 0 0 1 0.6211,0.0273 3.6421471,3.6421471 0 0 1 3.13476,4.08593 3.6421471,3.6421471 0 0 1 -4.08398,3.13672 3.6421471,3.6421471 0 0 1 -3.13672,-4.08593 3.6421471,3.6421471 0 0 1 3.46484,-3.16407 z" transform="scale(0.26458333)" style="fill:#76b900;fill-opacity:1;stroke:green;stroke-width:.47244096;stroke-linecap:round;stroke-linejoin:round;stroke-miterlimit:4;stroke-dasharray:none;stroke-opacity:1"/><path id="path1027" d="m 209.01172,149.65625 -0.90039,3.67773 a 8.7708204,8.7708204 0 0 0 -1.89844,0.35352 l -2.16211,-3.11133 -2.38672,1.29688 1.4336,3.50586 a 8.7708204,8.7708204 0 0 0 -1.33399,1.39843 l -3.57226,-1.24414 -1.16797,2.45118 3.21289,1.99218 a 8.7708204,8.7708204 0 0 0 -0.1836,0.95313 8.7708204,8.7708204 0 0 0 -0.0625,0.96484 l -3.625,1.09375 0.49415,2.66992 3.77929,-0.27929 a 8.7708204,8.7708204 0 0 0 0.91992,1.69726 l -2.28906,3.01563 1.96875,1.86914 2.89063,-2.44336 a 8.7708204,8.7708204 0 0 0 1.74414,0.83789 l -0.0781,3.77734 2.69141,0.35547 0.90234,-3.67773 a 8.7708204,8.7708204 0 0 0 1.89844,-0.35352 l 2.16211,3.10938 2.38476,-1.29688 -1.43164,-3.50391 a 8.7708204,8.7708204 0 0 0 1.33204,-1.40039 l 3.57226,1.24415 1.16992,-2.45118 -3.21484,-1.99023 a 8.7708204,8.7708204 0 0 0 0.18359,-0.95313 8.7708204,8.7708204 0 0 0 0.0625,-0.96484 l 3.62696,-1.0957 -0.4961,-2.66992 -3.77929,0.27929 a 8.7708204,8.7708204 0 0 0 -0.91993,-1.69726 l 2.29102,-3.01563 -1.9707,-1.86914 -2.89063,2.44336 a 8.7708204,8.7708204 0 0 0 -1.74414,-0.83789 l 0.0801,-3.77734 z m -0.41992,8.47461 a 3.9438341,3.9438341 0 0 1 0.67187,0.0312 3.9438341,3.9438341 0 0 1 3.39649,4.42383 3.9438341,3.9438341 0 0 1 -4.42383,3.39648 3.9438341,3.9438341 0 0 1 -3.39649,-4.42578 3.9438341,3.9438341 0 0 1 3.75196,-3.42578 z" transform="scale(0.26458333)" style="fill:#76b900;fill-opacity:1;stroke:green;stroke-width:.47244096;stroke-linecap:round;stroke-linejoin:round;stroke-miterlimit:4;stroke-dasharray:none;stroke-opacity:1"/></g><text xml:space="preserve" style="font-style:normal;font-weight:400;font-size:4.58611107px;line-height:1.25;font-family:sans-serif;text-align:center;letter-spacing:0;word-spacing:0;text-anchor:middle;fill:#000;fill-opacity:1;stroke:none;stroke-width:.33072916" id="text1033" x="88.049" y="48.293"><tspan id="tspan1031" x="88.049" y="48.293" style="font-weight:700;font-size:4.58611107px;text-align:center;text-anchor:middle;stroke-width:.33072916">FileReader</tspan></text></g><g id="g1083" transform="matrix(0.8,0,0,0.8,-8.6923629,-7.1666391)" style="stroke-width:1.25"><rect style="fill:#fff;fill-opacity:1;stroke:#000;stroke-width:.3125;stroke-linecap:round;stroke-linejoin:round;stroke-miterlimit:4;stroke-dasharray:none;stroke-opacity:1" id="rect1035" width="43.666" height="14.567" x="100.499" y="127.606"/><g id="g1041" style="fill:#76b900;fill-opacity:1;stroke:green;stroke-width:1.25" transform="translate(85.251417,88.338901)"><path id="path1037" d="m 188.84766,149.50781 -0.69727,2.84375 a 7.0947836,7.0947836 0 0 0 -2.0957,0.56055 l -2.02539,-2.11328 -2.1543,1.65429 1.51953,2.50586 a 7.0947836,7.0947836 0 0 0 -1.08398,1.87696 l -2.92969,-0.0625 -0.35352,2.69336 2.84375,0.69726 a 7.0947836,7.0947836 0 0 0 0.5625,2.09571 l -2.11328,2.02539 1.65235,2.15429 2.50586,-1.51953 a 7.0947836,7.0947836 0 0 0 1.87695,1.08399 l -0.0625,2.92773 2.69336,0.35547 0.69726,-2.8457 a 7.0947836,7.0947836 0 0 0 2.09571,-0.5586 l 2.02539,2.11133 2.15429,-1.65234 -1.51953,-2.50586 a 7.0947836,7.0947836 0 0 0 1.08399,-1.87696 l 2.92968,0.0606 0.35352,-2.69141 -2.84375,-0.69726 a 7.0947836,7.0947836 0 0 0 -0.56055,-2.0957 l 2.11133,-2.02735 -1.65234,-2.15234 -2.50586,1.51758 a 7.0947836,7.0947836 0 0 0 -1.87695,-1.08399 l 0.0625,-2.92773 z m -0.0762,6.25 a 3.6421471,3.6421471 0 0 1 0.6211,0.0273 3.6421471,3.6421471 0 0 1 3.13476,4.08593 3.6421471,3.6421471 0 0 1 -4.08398,3.13672 3.6421471,3.6421471 0 0 1 -3.13672,-4.08593 3.6421471,3.6421471 0 0 1 3.46484,-3.16407 z" transform="scale(0.26458333)" style="fill:#76b900;fill-opacity:1;stroke:green;stroke-width:.47244096;stroke-linecap:round;stroke-linejoin:round;stroke-miterlimit:4;stroke-dasharray:none;stroke-opacity:1"/><path id="path1039" d="m 209.01172,149.65625 -0.90039,3.67773 a 8.7708204,8.7708204 0 0 0 -1.89844,0.35352 l -2.16211,-3.11133 -2.38672,1.29688 1.4336,3.50586 a 8.7708204,8.7708204 0 0 0 -1.33399,1.39843 l -3.57226,-1.24414 -1.16797,2.45118 3.21289,1.99218 a 8.7708204,8.7708204 0 0 0 -0.1836,0.95313 8.7708204,8.7708204 0 0 0 -0.0625,0.96484 l -3.625,1.09375 0.49415,2.66992 3.77929,-0.27929 a 8.7708204,8.7708204 0 0 0 0.91992,1.69726 l -2.28906,3.01563 1.96875,1.86914 2.89063,-2.44336 a 8.7708204,8.7708204 0 0 0 1.74414,0.83789 l -0.0781,3.77734 2.69141,0.35547 0.90234,-3.67773 a 8.7708204,8.7708204 0 0 0 1.89844,-0.35352 l 2.16211,3.10938 2.38476,-1.29688 -1.43164,-3.50391 a 8.7708204,8.7708204 0 0 0 1.33204,-1.40039 l 3.57226,1.24415 1.16992,-2.45118 -3.21484,-1.99023 a 8.7708204,8.7708204 0 0 0 0.18359,-0.95313 8.7708204,8.7708204 0 0 0 0.0625,-0.96484 l 3.62696,-1.0957 -0.4961,-2.66992 -3.77929,0.27929 a 8.7708204,8.7708204 0 0 0 -0.91993,-1.69726 l 2.29102,-3.01563 -1.9707,-1.86914 -2.89063,2.44336 a 8.7708204,8.7708204 0 0 0 -1.74414,-0.83789 l 0.0801,-3.77734 z m -0.41992,8.47461 a 3.9438341,3.9438341 0 0 1 0.67187,0.0312 3.9438341,3.9438341 0 0 1 3.39649,4.42383 3.9438341,3.9438341 0 0 1 -4.42383,3.39648 3.9438341,3.9438341 0 0 1 -3.39649,-4.42578 3.9438341,3.9438341 0 0 1 3.75196,-3.42578 z" transform="scale(0.26458333)" style="fill:#76b900;fill-opacity:1;stroke:green;stroke-width:.47244096;stroke-linecap:round;stroke-linejoin:round;stroke-miterlimit:4;stroke-dasharray:none;stroke-opacity:1"/></g><text xml:space="preserve" style="font-style:normal;font-weight:400;font-size:4.58611107px;line-height:1.25;font-family:sans-serif;text-align:center;letter-spacing:0;word-spacing:0;text-anchor:middle;fill:#000;fill-opacity:1;stroke:none;stroke-width:.33072916" id="text1045" x="122.131" y="136.137"><tspan id="tspan1043" x="122.131" y="136.137" style="font-weight:700;font-size:4.58611107px;text-align:center;text-anchor:middle;stroke-width:.33072916">ImageDecoder</tspan></text></g><path style="fill:none;stroke:#000;stroke-width:.26458332px;stroke-linecap:butt;stroke-linejoin:miter;stroke-opacity:1" id="path1099" d="m 36.551387,60.685526 -0.0378,10.810121"/><path style="fill:none;stroke:#000;stroke-width:.26458332px;stroke-linecap:butt;stroke-linejoin:miter;stroke-opacity:1" id="path1101" d="M 38.781446,81.323022 V 94.77898"/><path style="fill:none;stroke:#000;stroke-width:.26458332px;stroke-linecap:butt;stroke-linejoin:miter;stroke-opacity:1" id="path1105" d="m 40.898113,115.34089 v -8.76905"/><g id="g1532" transform="translate(-98.478363,42.37373)"><path style="fill:#fff;fill-opacity:1;stroke:#000;stroke-width:.25;stroke-linecap:round;stroke-linejoin:miter;stroke-miterlimit:2;stroke-dasharray:none;stroke-opacity:1" id="path1528" d="m 130.21603,73.194523 16.79999,-3.76e-4 3.2,3.200376 1e-5,6.4 h -20 z"/><path style="fill:none;fill-opacity:1;stroke:#000;stroke-width:.25;stroke-linecap:round;stroke-linejoin:miter;stroke-miterlimit:2;stroke-dasharray:none;stroke-opacity:1" id="path1530" d="m 147.01602,73.194147 v 3.200376 h 3.2"/></g><text xml:space="preserve" style="font-style:normal;font-weight:400;font-size:3.66888881px;line-height:1.25;font-family:sans-serif;letter-spacing:0;word-spacing:0;fill:#000;fill-opacity:1;stroke:none;stroke-width:.26458332" id="text1115" x="34.984" y="121.38"><tspan id="tspan1113" x="34.984" y="121.38" style="font-size:3.66888881px;stroke-width:.26458332">images</tspan></text><g id="g1544" transform="translate(-29.989079,42.373741)"><path style="fill:#fff;fill-opacity:1;stroke:#000;stroke-width:.25;stroke-linecap:round;stroke-linejoin:miter;stroke-miterlimit:2;stroke-dasharray:none;stroke-opacity:1" id="path1540" d="m 130.21603,73.194523 16.79999,-3.76e-4 3.2,3.200376 1e-5,6.4 h -20 z"/><path style="fill:none;fill-opacity:1;stroke:#000;stroke-width:.25;stroke-linecap:round;stroke-linejoin:miter;stroke-miterlimit:2;stroke-dasharray:none;stroke-opacity:1" id="path1542" d="m 147.01602,73.194147 v 3.200376 h 3.2"/></g><text xml:space="preserve" style="font-style:normal;font-weight:400;font-size:3.66888881px;line-height:1.25;font-family:sans-serif;letter-spacing:0;word-spacing:0;fill:#000;fill-opacity:1;stroke:none;stroke-width:.26458332" id="text1127" x="104.752" y="121.736"><tspan id="tspan1125" x="104.752" y="121.736" style="font-size:3.66888881px;stroke-width:.26458332">labels</tspan></text><path id="path1141" d="m 77.032637,115.34089 v -8.76905" style="fill:none;stroke:#000;stroke-width:.26458332px;stroke-linecap:butt;stroke-linejoin:miter;stroke-opacity:1"/><path style="fill:none;stroke:#000;stroke-width:.26458332px;stroke-linecap:butt;stroke-linejoin:miter;stroke-opacity:1" id="path1143" d="m 47.890672,60.685526 c 0.0039,6.998807 9.650251,26.774246 33.037411,26.966558 7.27002,0.05978 29.799997,-1.17489 30.960477,6.428505 1.10343,7.229581 -2.39869,9.300261 -2.50117,21.109101"/><path style="fill:none;stroke:#000;stroke-width:.26458332px;stroke-linecap:butt;stroke-linejoin:miter;stroke-opacity:1" id="path1145" d="m 76.314485,81.323022 3.439583,13.304769"/><path style="fill:none;stroke:#b3b3b3;stroke-width:.26458332px;stroke-linecap:butt;stroke-linejoin:miter;stroke-opacity:1" id="path1149" d="M 89.619246,60.685526 101.4121,71.646839"/><text xml:space="preserve" style="font-style:normal;font-weight:400;font-size:3.66888881px;line-height:1.25;font-family:sans-serif;letter-spacing:0;word-spacing:0;fill:#000;fill-opacity:1;stroke:none;stroke-width:.26458332" id="text1161" x="125.97" y="121.267"><tspan x="125.97" y="121.267" style="font-size:3.66888881px;fill:#000;stroke-width:.26458332" id="tspan1163">= pipeline outputs</tspan></text><text xml:space="preserve" style="font-style:normal;font-weight:400;font-size:13.78071308px;line-height:1.25;font-family:sans-serif;letter-spacing:0;word-spacing:0;fill:#000;fill-opacity:1;stroke:none;stroke-width:.26458332" id="text1169" x="25.776" y="125.072"><tspan id="tspan1167" x="25.776" y="125.072" style="stroke-width:.26458332">[</tspan></text><text xml:space="preserve" style="font-style:normal;font-weight:400;font-size:13.78071308px;line-height:1.25;font-family:sans-serif;letter-spacing:0;word-spacing:0;fill:#000;fill-opacity:1;stroke:none;stroke-width:.26458332" id="text1173" x="120.773" y="124.879"><tspan id="tspan1171" x="120.773" y="124.879" style="stroke-width:.26458332">]</tspan></text><path id="path1292" d="m 77.93978,60.685526 -0.0378,10.810121" style="fill:none;stroke:#000;stroke-width:.26458332px;stroke-linecap:butt;stroke-linejoin:miter;stroke-opacity:1"/><g id="g1493"><path id="path1485" d="m 130.21603,73.194523 16.79999,-3.76e-4 3.2,3.200376 1e-5,6.4 h -20 z" style="fill:#fff;fill-opacity:1;stroke:#000;stroke-width:.25;stroke-linecap:round;stroke-linejoin:miter;stroke-miterlimit:2;stroke-dasharray:none;stroke-opacity:1"/><path id="path1489" d="m 147.01602,73.194147 v 3.200376 h 3.2" style="fill:none;fill-opacity:1;stroke:#000;stroke-width:.25;stroke-linecap:round;stroke-linejoin:miter;stroke-miterlimit:2;stroke-dasharray:none;stroke-opacity:1"/></g><text id="text1310" x="130.965" y="79.362" style="font-style:normal;font-weight:400;font-size:3.66888881px;line-height:1.25;font-family:sans-serif;letter-spacing:0;word-spacing:0;fill:#000;fill-opacity:1;stroke:none;stroke-width:.26458332" xml:space="preserve"><tspan style="font-size:3.66888881px;stroke-width:.26458332" id="tspan1308" x="130.965" y="79.362">DataNode</tspan></text><text xml:space="preserve" style="font-style:normal;font-weight:400;font-size:3.28684878px;line-height:1.25;font-family:sans-serif;letter-spacing:0;word-spacing:0;fill:#000;fill-opacity:1;stroke:none;stroke-width:.26458332" id="text1316" x="130.104" y="54.813"><tspan id="tspan1314" x="130.104" y="54.813" style="stroke-width:.26458332">Legend</tspan></text><g id="g1501"><path id="path1483" d="m 130.08837,87.186962 16.8,-3.76e-4 3.2,3.200376 v 6.4 h -20 z" style="fill:#fff;fill-opacity:1;stroke:#ccc;stroke-width:.25;stroke-linecap:round;stroke-linejoin:miter;stroke-miterlimit:2;stroke-dasharray:none;stroke-opacity:1"/><path id="path1497" d="m 146.88837,87.186586 v 3.200376 h 3.2" style="fill:none;fill-opacity:1;stroke:#ccc;stroke-width:.25;stroke-linecap:round;stroke-linejoin:miter;stroke-miterlimit:2;stroke-dasharray:none;stroke-opacity:1"/></g><text id="text1326" x="131.207" y="93.355" style="font-style:normal;font-weight:400;font-size:3.66888881px;line-height:1.25;font-family:sans-serif;letter-spacing:0;word-spacing:0;fill:#b3b3b3;fill-opacity:1;stroke:none;stroke-width:.26458332" xml:space="preserve"><tspan style="font-weight:400;font-size:3.66888881px;fill:#b3b3b3;stroke:none;stroke-width:.26458332" id="tspan1324" x="131.207" y="93.355">discarded</tspan></text></g></svg>